<?xml version="1.0" encoding="UTF-8" standalone="no"?>
<!-- Created with Inkscape (http://www.inkscape.org/) -->

<svg
   id="svg4224"
   sodipodi:docname="chatopts.svg"
   viewBox="0 0 47.999998 48.000001"
   version="1.1"
   inkscape:version="1.3.2 (091e20e, 2023-11-25, custom)"
   width="48"
   height="48"
   xmlns:inkscape="http://www.inkscape.org/namespaces/inkscape"
   xmlns:sodipodi="http://sodipodi.sourceforge.net/DTD/sodipodi-0.dtd"
   xmlns="http://www.w3.org/2000/svg"
   xmlns:svg="http://www.w3.org/2000/svg"
   xmlns:rdf="http://www.w3.org/1999/02/22-rdf-syntax-ns#"
   xmlns:cc="http://creativecommons.org/ns#"
   xmlns:dc="http://purl.org/dc/elements/1.1/">
  <title
     id="title4525">Chat Options Icon</title>
  <defs
     id="defs4226" />
  <sodipodi:namedview
     id="base"
     bordercolor="#666666"
     inkscape:pageshadow="2"
     inkscape:window-y="-8"
     fit-margin-left="0"
     pagecolor="#ffffff"
     inkscape:window-height="1025"
     inkscape:window-maximized="1"
     inkscape:zoom="7.9195959"
     inkscape:window-x="-8"
     showgrid="false"
     borderopacity="1.0"
     inkscape:current-layer="svg4224"
     inkscape:cx="64.46036"
     inkscape:cy="20.392455"
     fit-margin-top="0"
     fit-margin-right="0"
     fit-margin-bottom="0"
     inkscape:window-width="1920"
     inkscape:pageopacity="0.0"
     inkscape:document-units="px"
     inkscape:showpageshadow="2"
     inkscape:pagecheckerboard="true"
     inkscape:deskcolor="#d1d1d1" />
  <metadata
     id="metadata14">
    <rdf:RDF>
      <cc:Work
         rdf:about="">
        <dc:title>Chat Options Icon</dc:title>
        <cc:license
           rdf:resource="http://creativecommons.org/publicdomain/zero/1.0/" />
        <dc:creator>
          <cc:Agent>
            <dc:title>AntumDeluge</dc:title>
          </cc:Agent>
        </dc:creator>
      </cc:Work>
      <cc:License
         rdf:about="http://creativecommons.org/publicdomain/zero/1.0/">
        <cc:permits
           rdf:resource="http://creativecommons.org/ns#Reproduction" />
        <cc:permits
           rdf:resource="http://creativecommons.org/ns#Distribution" />
        <cc:permits
           rdf:resource="http://creativecommons.org/ns#DerivativeWorks" />
      </cc:License>
    </rdf:RDF>
  </metadata>
  <g
     transform="matrix(0.18568235,0,0,0.18568235,-28.861574,-61.321612)"
     id="g4531"
     style="fill:#ffffff;fill-opacity:1;stroke:#000000;stroke-width:10.7623;stroke-dasharray:none;stroke-opacity:1"
     inkscape:label="g1"
     sodipodi:insensitive="true">
    <circle
       style="fill:#000000;fill-opacity:1;stroke:none;stroke-width:14.5972"
       id="path1"
       cx="-284.6882"
       cy="459.50308"
       r="86.168663"
       inkscape:label="background"
       transform="scale(-1,1)" />
    <path
       style="font-weight:bold;font-size:215.422px;line-height:1.25;font-family:Carlito;-inkscape-font-specification:'Carlito Bold';letter-spacing:0px;word-spacing:0px;fill:#ffffff;fill-opacity:1;stroke:none;stroke-width:37.3532;stroke-dasharray:none"
       d="M 303.09191,508.20681 H 285.1966 v -38.97653 h -36.4685 v 38.97653 h -17.89531 v -90.01886 h 17.89531 v 38.43425 h 36.4685 v -38.43425 h 17.89531 z m 13.76041,0 z m 19.58996,-67.31078 v 67.31078 h -17.21747 v -67.31078 z m 2.10134,-19.31881 q 0,2.23691 -0.88121,4.20269 -0.88121,1.89798 -2.37249,3.38925 -1.49127,1.4235 -3.52483,2.3047 -2.03356,0.81343 -4.27047,0.81343 -2.16913,0 -4.13491,-0.81343 -1.89799,-0.8812 -3.38926,-2.3047 -1.4235,-1.49127 -2.3047,-3.38925 -0.81343,-1.96578 -0.81343,-4.20269 0,-2.23693 0.81343,-4.20269 0.8812,-1.96577 2.3047,-3.38927 1.49127,-1.49128 3.38926,-2.3047 1.96578,-0.88121 4.13491,-0.88121 2.23691,0 4.27047,0.88121 2.03356,0.81342 3.52483,2.3047 1.49128,1.4235 2.37249,3.38927 0.88121,1.96576 0.88121,4.20269 z"
       id="text1"
       aria-label="Hi"
       inkscape:label="icon" />
  </g>
</svg>
