<?xml version="1.0" encoding="UTF-8" standalone="no"?>
<!-- Created with Inkscape (http://www.inkscape.org/) -->

<svg
   id="svg3043"
   sodipodi:docname="joystick.svg"
   viewBox="0 0 47.999999 48"
   version="1.1"
   inkscape:version="1.1.2 (0a00cf5339, 2022-02-04)"
   width="48"
   height="48"
   inkscape:label="foreground"
   xmlns:inkscape="http://www.inkscape.org/namespaces/inkscape"
   xmlns:sodipodi="http://sodipodi.sourceforge.net/DTD/sodipodi-0.dtd"
   xmlns="http://www.w3.org/2000/svg"
   xmlns:svg="http://www.w3.org/2000/svg"
   xmlns:rdf="http://www.w3.org/1999/02/22-rdf-syntax-ns#"
   xmlns:cc="http://creativecommons.org/ns#"
   xmlns:dc="http://purl.org/dc/elements/1.1/">
  <defs
     id="defs11" />
  <sodipodi:namedview
     id="base"
     bordercolor="#666666"
     inkscape:pageshadow="2"
     inkscape:window-y="0"
     fit-margin-left="0"
     pagecolor="#ffffff"
     fit-margin-top="0"
     inkscape:window-maximized="1"
     inkscape:zoom="7.919596"
     inkscape:window-x="0"
     inkscape:window-height="712"
     showgrid="false"
     borderopacity="1.0"
     inkscape:current-layer="g1098"
     inkscape:cx="21.592011"
     inkscape:cy="4.5456864"
     fit-margin-right="0"
     fit-margin-bottom="0"
     inkscape:window-width="1366"
     inkscape:pageopacity="0.0"
     inkscape:document-units="px"
     inkscape:pagecheckerboard="true" />
  <metadata
     id="metadata8">
    <rdf:RDF>
      <cc:Work>
        <dc:format>image/svg+xml</dc:format>
        <dc:type
           rdf:resource="http://purl.org/dc/dcmitype/StillImage" />
        <cc:license
           rdf:resource="http://creativecommons.org/publicdomain/zero/1.0/" />
        <dc:publisher>
          <cc:Agent
             rdf:about="http://openclipart.org/">
            <dc:title>Openclipart</dc:title>
          </cc:Agent>
        </dc:publisher>
        <dc:title>gamepad</dc:title>
        <dc:date>2012-10-07T08:36:44</dc:date>
        <dc:description>retro gamepad</dc:description>
        <dc:source>https://openclipart.org/detail/172636</dc:source>
        <dc:creator>
          <cc:Agent>
            <dc:title>sagism</dc:title>
          </cc:Agent>
        </dc:creator>
        <dc:subject>
          <rdf:Bag>
            <rdf:li>game</rdf:li>
            <rdf:li>gamepad</rdf:li>
            <rdf:li>retro</rdf:li>
          </rdf:Bag>
        </dc:subject>
      </cc:Work>
      <cc:License
         rdf:about="http://creativecommons.org/licenses/publicdomain/">
        <cc:permits
           rdf:resource="http://creativecommons.org/ns#Reproduction" />
        <cc:permits
           rdf:resource="http://creativecommons.org/ns#Distribution" />
        <cc:permits
           rdf:resource="http://creativecommons.org/ns#DerivativeWorks" />
      </cc:License>
    </rdf:RDF>
  </metadata>
  <g
     id="g1098">
    <path
       style="display:inline;fill:#ffffff;stroke-width:0.230833"
       d="M 4.2095129,12.211 C 1.876942,12.211 4.99e-4,14.08749 4.99e-4,16.420014 v 15.159972 c 0,2.332571 1.87649,4.209014 4.2090139,4.209014 H 43.790489 c 2.332569,0 4.209012,-1.87649 4.209012,-4.209014 V 16.420014 c 0,-2.332571 -1.87649,-4.209014 -4.209012,-4.209014 z"
       id="path2677"
       inkscape:label="background" />
    <path
       id="rect2985"
       style="display:inline;fill:#ffffff;fill-opacity:1;stroke:#000000;stroke-width:1.92001;stroke-miterlimit:4;stroke-dasharray:none;stroke-opacity:1"
       inkscape:connector-curvature="0"
       d="m 5.0010411,12.682505 c -2.2392788,0 -4.04067279,1.80144 -4.04067279,4.040673 v 14.553644 c 0,2.239279 1.80143909,4.040673 4.04067279,4.040673 H 42.998962 c 2.239277,0 4.04067,-1.801439 4.04067,-4.040673 V 16.723178 c 0,-2.239279 -1.801439,-4.040673 -4.04067,-4.040673 z m 23.0420699,2.426974 c 2.232407,0 4.040672,1.808375 4.040672,4.040672 0,2.232299 -1.808376,4.040673 -4.040672,4.040673 -2.232298,0 -4.040673,-1.808374 -4.040673,-4.040673 0,-2.232297 1.808375,-4.040672 4.040673,-4.040672 z m 11.317383,0 c 2.232408,0 4.040671,1.808375 4.040671,4.040672 0,2.232299 -1.808374,4.040673 -4.040671,4.040673 -2.232297,0 -4.040673,-1.808374 -4.040673,-4.040673 0,-2.232297 1.808376,-4.040672 4.040673,-4.040672 z M 9.4487934,15.91409 h 5.6588036 v 5.053168 h 5.053167 v 5.658802 h -5.053167 v 5.053168 H 9.4487934 V 26.62606 H 4.3956267 v -5.658802 h 5.0531667 z"
       sodipodi:nodetypes="sssssssssssssssssssccccccccccccc"
       inkscape:label="icon" />
  </g>
</svg>
