<?xml version="1.0" encoding="UTF-8" standalone="no"?>
<!-- Created with Inkscape (http://www.inkscape.org/) -->

<svg
   id="svg2"
   version="1.0"
   viewBox="0 0 48 48"
   inkscape:version="1.3.2 (091e20e, 2023-11-25, custom)"
   sodipodi:docname="menu.svg"
   width="48"
   height="48"
   xmlns:inkscape="http://www.inkscape.org/namespaces/inkscape"
   xmlns:sodipodi="http://sodipodi.sourceforge.net/DTD/sodipodi-0.dtd"
   xmlns="http://www.w3.org/2000/svg"
   xmlns:svg="http://www.w3.org/2000/svg"
   xmlns:rdf="http://www.w3.org/1999/02/22-rdf-syntax-ns#"
   xmlns:cc="http://creativecommons.org/ns#"
   xmlns:dc="http://purl.org/dc/elements/1.1/">
  <defs
     id="defs9" />
  <sodipodi:namedview
     id="namedview7"
     pagecolor="#ffffff"
     bordercolor="#666666"
     borderopacity="1"
     inkscape:pageshadow="0"
     inkscape:pageopacity="0"
     inkscape:pagecheckerboard="true"
     showgrid="false"
     inkscape:zoom="6.4390244"
     inkscape:cx="23.994318"
     inkscape:cy="28.342803"
     inkscape:window-width="1920"
     inkscape:window-height="1025"
     inkscape:window-x="-8"
     inkscape:window-y="-8"
     inkscape:window-maximized="1"
     inkscape:current-layer="svg2"
     fit-margin-top="0"
     fit-margin-left="0"
     fit-margin-right="0"
     fit-margin-bottom="0"
     inkscape:showpageshadow="2"
     inkscape:deskcolor="#d1d1d1" />
  <g
     id="g1"
     sodipodi:insensitive="true">
    <circle
       style="fill:#000000;fill-opacity:1;stroke:none;stroke-width:2.71045"
       id="path1"
       cx="24"
       cy="24"
       r="16"
       inkscape:label="background" />
    <path
       id="path58241"
       style="display:inline;fill:#ffffff;fill-opacity:1;stroke:none;stroke-width:1.025;stroke-linecap:round;stroke-linejoin:round;stroke-miterlimit:4;stroke-dasharray:none;stroke-dashoffset:162;stroke-opacity:1"
       d="m 24,12.00003 c -0.822,0 -1.623001,0.08616 -2.4,0.24375 v 1.85625 c -1.041,0.25167 -2.016,0.65541 -2.904,1.2 l -1.314,-1.3125 c -0.672,0.44586 -1.287,0.96894 -1.857,1.5375 -0.567,0.56844 -1.092,1.18344 -1.536,1.85634 l 1.311,1.3125 c -0.543,0.890101 -0.948,1.8636 -1.2,2.9061 h -1.854 c -0.159,0.7755 -0.246,1.5783 -0.246,2.4 0,0.8217 0.087,1.6245 0.246,2.4 H 14.1 c 0.252,1.0425 0.657,2.016 1.2,2.9064 l -1.311,1.312501 c 0.444,0.672599 0.969,1.2876 1.536,1.856099 0.57,0.5685 1.185,1.0917 1.857,1.5375 l 1.314,-1.312499 c 0.888,0.544799 1.863,0.9483 2.904,1.199999 v 1.8564 c 0.776999,0.1575 1.578,0.2436 2.4,0.2436 0.821999,0 1.625999,-0.0861 2.399999,-0.2436 v -1.8564 c 1.044001,-0.251699 2.016,-0.6552 2.907001,-1.199999 l 1.313999,1.312499 c 0.672001,-0.4458 1.287001,-0.969 1.854,-1.5375 0.57,-0.568499 1.092,-1.1835 1.539001,-1.856099 L 32.7,29.30637 c 0.546,-0.8904 0.947999,-1.8639 1.2,-2.9064 h 1.857 c 0.159,-0.7755 0.243,-1.5783 0.243,-2.4 0,-0.8217 -0.084,-1.6245 -0.243,-2.4 H 33.9 c -0.252001,-1.0425 -0.654,-2.015999 -1.2,-2.9061 l 1.314,-1.3125 C 33.566999,16.70847 33.044999,16.09347 32.474999,15.52503 31.908,14.95647 31.293,14.43339 30.620999,13.98753 L 29.307,15.30003 c -0.891001,-0.54459 -1.863,-0.94833 -2.907001,-1.2 V 12.24378 C 25.625999,12.08619 24.821999,12.00003 24,12.00003 Z m 0,6 c 3.311999,0 6,2.688 6,6.000001 0,3.311999 -2.688001,5.999999 -6,5.999999 -3.312,0 -6.000001,-2.688 -6.000001,-5.999999 C 17.999999,20.68803 20.688,18.00003 24,18.00003 Z"
       inkscape:label="icon" />
  </g>
  <metadata
     id="metadata4">
    <rdf:RDF>
      <cc:Work>
        <dc:format>image/svg+xml</dc:format>
        <dc:type
           rdf:resource="http://purl.org/dc/dcmitype/StillImage" />
        <cc:license
           rdf:resource="http://creativecommons.org/publicdomain/zero/1.0/" />
        <dc:publisher>
          <cc:Agent
             rdf:about="http://openclipart.org/">
            <dc:title>Openclipart</dc:title>
          </cc:Agent>
        </dc:publisher>
        <dc:title>Cog, cogwheel, gear, Zahnrad</dc:title>
        <dc:date>2009-12-21T20:11:31</dc:date>
        <dc:description>cog made as an icon for http://freegamedev.net but not used</dc:description>
        <dc:source>https://openclipart.org/detail/28703</dc:source>
        <dc:creator>
          <cc:Agent>
            <dc:title>qubodup</dc:title>
          </cc:Agent>
        </dc:creator>
        <dc:subject>
          <rdf:Bag>
            <rdf:li>cartoon</rdf:li>
            <rdf:li>cog</rdf:li>
            <rdf:li>cogwheel</rdf:li>
            <rdf:li>eisen</rdf:li>
            <rdf:li>gear</rdf:li>
            <rdf:li>graphic</rdf:li>
            <rdf:li>grau</rdf:li>
            <rdf:li>gray</rdf:li>
            <rdf:li>grey</rdf:li>
            <rdf:li>iron</rdf:li>
            <rdf:li>mechanical</rdf:li>
            <rdf:li>mechanik</rdf:li>
            <rdf:li>mechanisch</rdf:li>
            <rdf:li>mechanism</rdf:li>
            <rdf:li>metal</rdf:li>
            <rdf:li>outline</rdf:li>
            <rdf:li>simple</rdf:li>
            <rdf:li>svgz</rdf:li>
            <rdf:li>unchecked</rdf:li>
            <rdf:li>zahnrad</rdf:li>
          </rdf:Bag>
        </dc:subject>
      </cc:Work>
      <cc:License
         rdf:about="http://creativecommons.org/publicdomain/zero/1.0/">
        <cc:permits
           rdf:resource="http://creativecommons.org/ns#Reproduction" />
        <cc:permits
           rdf:resource="http://creativecommons.org/ns#Distribution" />
        <cc:permits
           rdf:resource="http://creativecommons.org/ns#DerivativeWorks" />
      </cc:License>
    </rdf:RDF>
  </metadata>
</svg>
