<?xml version="1.0" encoding="UTF-8" standalone="no"?>
<!-- Created with Inkscape (http://www.inkscape.org/) -->

<svg
   id="svg2"
   version="1.0"
   viewBox="0 0 48 48"
   inkscape:version="1.1.2 (0a00cf5339, 2022-02-04)"
   sodipodi:docname="menu.svg"
   width="48"
   height="48"
   xmlns:inkscape="http://www.inkscape.org/namespaces/inkscape"
   xmlns:sodipodi="http://sodipodi.sourceforge.net/DTD/sodipodi-0.dtd"
   xmlns="http://www.w3.org/2000/svg"
   xmlns:svg="http://www.w3.org/2000/svg"
   xmlns:rdf="http://www.w3.org/1999/02/22-rdf-syntax-ns#"
   xmlns:cc="http://creativecommons.org/ns#"
   xmlns:dc="http://purl.org/dc/elements/1.1/">
  <defs
     id="defs9" />
  <sodipodi:namedview
     id="namedview7"
     pagecolor="#505050"
     bordercolor="#eeeeee"
     borderopacity="1"
     inkscape:pageshadow="0"
     inkscape:pageopacity="0"
     inkscape:pagecheckerboard="0"
     showgrid="false"
     inkscape:zoom="6.4390244"
     inkscape:cx="23.994318"
     inkscape:cy="28.575758"
     inkscape:window-width="1366"
     inkscape:window-height="712"
     inkscape:window-x="0"
     inkscape:window-y="0"
     inkscape:window-maximized="1"
     inkscape:current-layer="svg2"
     fit-margin-top="0"
     fit-margin-left="0"
     fit-margin-right="0"
     fit-margin-bottom="0" />
  <path
     id="path58241"
     style="fill:#ffffff;fill-opacity:1;stroke:#000001;stroke-width:1.96604;stroke-linecap:round;stroke-linejoin:round;stroke-miterlimit:4;stroke-dasharray:none;stroke-dashoffset:162;stroke-opacity:1"
     d="m 24,0.98301917 c -1.576667,0 -3.113055,0.16526233 -4.603408,0.46753353 V 5.0110008 C 17.399864,5.4937256 15.52973,6.2681339 13.826469,7.3127046 L 11.306103,4.795216 C 10.017149,5.6504142 8.837526,6.6537269 7.7442166,7.7442741 6.6566616,8.8345913 5.6496661,10.014215 4.7980357,11.304894 l 2.5146114,2.517489 c -1.041521,1.70729 -1.818346,3.574547 -2.3017038,5.574152 H 1.4548109 c -0.3049757,1.487476 -0.47184923,3.027316 -0.47184923,4.603407 0,1.576092 0.16687353,3.115932 0.47184923,4.603408 h 3.5561324 c 0.4833578,1.999605 1.2601828,3.866862 2.3017038,5.574727 l -2.5146114,2.517489 c 0.8516304,1.290104 1.8586259,2.469728 2.9461809,3.560159 1.0933094,1.090433 2.2729324,2.093976 3.5618864,2.949058 l 2.520366,-2.517487 c 1.703261,1.044973 3.573395,1.818921 5.570123,2.301703 v 3.560736 c 1.490353,0.302098 3.026741,0.467246 4.603408,0.467246 1.576666,0 3.118808,-0.165148 4.603407,-0.467246 v -3.560736 c 2.002483,-0.482782 3.866862,-1.25673 5.575878,-2.301703 l 2.520365,2.517487 c 1.288955,-0.855082 2.468578,-1.858625 3.556132,-2.949058 1.09331,-1.090431 2.094551,-2.270055 2.951936,-3.560159 l -2.520365,-2.517489 c 1.047275,-1.707865 1.818345,-3.575122 2.301703,-5.574727 h 3.561887 c 0.304976,-1.487476 0.466095,-3.027316 0.466095,-4.603408 0,-1.576091 -0.161119,-3.115931 -0.466095,-4.603407 H 42.989056 C 42.505698,17.39693 41.734628,15.529673 40.687353,13.822383 l 2.520365,-2.517489 C 42.350333,10.014215 41.349092,8.8345913 40.255782,7.7442741 39.168228,6.6537269 37.988605,5.6504142 36.69965,4.795216 L 34.179285,7.3127046 C 32.470269,6.2681339 30.60589,5.4937256 28.603407,5.0110008 V 1.4505527 C 27.118808,1.1482815 25.576666,0.98301917 24,0.98301917 Z M 24,12.491538 c 6.352702,0 11.508519,5.155817 11.508519,11.50852 0,6.352702 -5.155817,11.508519 -11.508519,11.508519 -6.352703,0 -11.50852,-5.155817 -11.50852,-11.508519 0,-6.352703 5.155817,-11.50852 11.50852,-11.50852 z" />
  <metadata
     id="metadata4">
    <rdf:RDF>
      <cc:Work>
        <dc:format>image/svg+xml</dc:format>
        <dc:type
           rdf:resource="http://purl.org/dc/dcmitype/StillImage" />
        <cc:license
           rdf:resource="http://creativecommons.org/publicdomain/zero/1.0/" />
        <dc:publisher>
          <cc:Agent
             rdf:about="http://openclipart.org/">
            <dc:title>Openclipart</dc:title>
          </cc:Agent>
        </dc:publisher>
        <dc:title>Cog, cogwheel, gear, Zahnrad</dc:title>
        <dc:date>2009-12-21T20:11:31</dc:date>
        <dc:description>cog made as an icon for http://freegamedev.net but not used</dc:description>
        <dc:source>https://openclipart.org/detail/28703</dc:source>
        <dc:creator>
          <cc:Agent>
            <dc:title>qubodup</dc:title>
          </cc:Agent>
        </dc:creator>
        <dc:subject>
          <rdf:Bag>
            <rdf:li>cartoon</rdf:li>
            <rdf:li>cog</rdf:li>
            <rdf:li>cogwheel</rdf:li>
            <rdf:li>eisen</rdf:li>
            <rdf:li>gear</rdf:li>
            <rdf:li>graphic</rdf:li>
            <rdf:li>grau</rdf:li>
            <rdf:li>gray</rdf:li>
            <rdf:li>grey</rdf:li>
            <rdf:li>iron</rdf:li>
            <rdf:li>mechanical</rdf:li>
            <rdf:li>mechanik</rdf:li>
            <rdf:li>mechanisch</rdf:li>
            <rdf:li>mechanism</rdf:li>
            <rdf:li>metal</rdf:li>
            <rdf:li>outline</rdf:li>
            <rdf:li>simple</rdf:li>
            <rdf:li>svgz</rdf:li>
            <rdf:li>unchecked</rdf:li>
            <rdf:li>zahnrad</rdf:li>
          </rdf:Bag>
        </dc:subject>
      </cc:Work>
      <cc:License
         rdf:about="http://creativecommons.org/licenses/publicdomain/">
        <cc:permits
           rdf:resource="http://creativecommons.org/ns#Reproduction" />
        <cc:permits
           rdf:resource="http://creativecommons.org/ns#Distribution" />
        <cc:permits
           rdf:resource="http://creativecommons.org/ns#DerivativeWorks" />
      </cc:License>
    </rdf:RDF>
  </metadata>
</svg>
