<?xml version="1.0" encoding="UTF-8" standalone="no"?>
<!-- Created with Inkscape (http://www.inkscape.org/) -->

<svg
   id="svg27183"
   sodipodi:docname="settings.svg"
   viewBox="0 0 48 48"
   version="1.1"
   inkscape:version="1.3.2 (091e20e, 2023-11-25, custom)"
   width="48"
   height="48"
   xmlns:inkscape="http://www.inkscape.org/namespaces/inkscape"
   xmlns:sodipodi="http://sodipodi.sourceforge.net/DTD/sodipodi-0.dtd"
   xmlns="http://www.w3.org/2000/svg"
   xmlns:svg="http://www.w3.org/2000/svg"
   xmlns:rdf="http://www.w3.org/1999/02/22-rdf-syntax-ns#"
   xmlns:cc="http://creativecommons.org/ns#"
   xmlns:dc="http://purl.org/dc/elements/1.1/">
  <title
     id="title1582">Settings Icon</title>
  <defs
     id="defs8" />
  <sodipodi:namedview
     id="base"
     bordercolor="#666666"
     inkscape:pageshadow="2"
     inkscape:window-y="-8"
     pagecolor="#ffffff"
     inkscape:window-height="1025"
     inkscape:window-maximized="1"
     inkscape:zoom="3.959798"
     inkscape:window-x="-8"
     showgrid="false"
     borderopacity="1.0"
     inkscape:current-layer="svg27183"
     inkscape:cx="-3.9143411"
     inkscape:cy="35.481608"
     inkscape:window-width="1920"
     inkscape:pageopacity="0.0"
     inkscape:document-units="px"
     inkscape:pagecheckerboard="true"
     fit-margin-top="0"
     fit-margin-left="0"
     fit-margin-right="0"
     fit-margin-bottom="0"
     inkscape:showpageshadow="2"
     inkscape:deskcolor="#d1d1d1" />
  <metadata
     id="metadata5">
    <rdf:RDF>
      <cc:Work>
        <dc:format>image/svg+xml</dc:format>
        <dc:type
           rdf:resource="http://purl.org/dc/dcmitype/StillImage" />
        <cc:license
           rdf:resource="http://creativecommons.org/publicdomain/zero/1.0/" />
        <dc:publisher>
          <cc:Agent
             rdf:about="http://openclipart.org/">
            <dc:title>Openclipart</dc:title>
          </cc:Agent>
        </dc:publisher>
        <dc:title>Settings Icon</dc:title>
        <dc:creator>
          <cc:Agent>
            <dc:title>ben</dc:title>
          </cc:Agent>
        </dc:creator>
        <dc:source>https://openclipart.org/detail/192629</dc:source>
      </cc:Work>
      <cc:License
         rdf:about="http://creativecommons.org/publicdomain/zero/1.0/">
        <cc:permits
           rdf:resource="http://creativecommons.org/ns#Reproduction" />
        <cc:permits
           rdf:resource="http://creativecommons.org/ns#Distribution" />
        <cc:permits
           rdf:resource="http://creativecommons.org/ns#DerivativeWorks" />
      </cc:License>
    </rdf:RDF>
  </metadata>
  <g
     id="g1"
     sodipodi:insensitive="true">
    <circle
       style="fill:#000000;fill-opacity:1;stroke:none;stroke-width:2.71045"
       id="path1"
       cx="24"
       cy="24"
       r="16"
       inkscape:label="background" />
    <path
       id="path3919"
       sodipodi:nodetypes="sssscscccccccsscssssssscscccccccccccsscsscccsscscccsssscccssssscccccccccscccscscccccccssscscc"
       style="fill:#ffffff;fill-opacity:1;stroke:none;stroke-width:1;stroke-miterlimit:4;stroke-dasharray:none;stroke-opacity:1"
       inkscape:connector-curvature="0"
       d="M 32.25655,35.840722 C 32.403831,35.677977 32.3906,35.66124 31.061376,34.330231 29.925416,33.192801 29.7172,32.9472 29.7172,32.744787 c 0,-0.200419 0.180939,-0.420909 1.105939,-1.34772 1.484368,-1.487125 1.274682,-1.502746 3.003654,0.223915 1.329342,1.327636 1.334199,1.331442 1.484369,1.165548 0.147846,-0.163375 0.143514,-0.19337 -0.236479,-1.633883 l -0.38708,-1.467435 -0.768267,-0.780409 -0.76828,-0.780409 -1.455228,-0.339838 -1.455227,-0.339837 -4.592774,-4.578598 -4.592774,-4.578597 -0.264713,-1.104258 C 20.304835,15.157945 20.396119,15.346839 19.506023,14.5255 l -0.794271,-0.732903 -1.441314,-0.402649 c -1.428448,-0.399092 -1.442625,-0.401271 -1.599621,-0.246034 -0.157218,0.155486 -0.148607,0.166447 1.187508,1.511016 1.124553,1.131601 1.345882,1.393006 1.345882,1.589513 0,0.195089 -0.195299,0.430806 -1.146237,1.383425 -0.864486,0.866035 -1.195739,1.148272 -1.34772,1.148272 -0.15311,0 -0.523375,-0.321499 -1.543176,-1.339975 -1.343125,-1.341419 -1.518104,-1.459297 -1.650947,-1.11304 -0.02679,0.06983 0.123601,0.791515 0.334206,1.60369 l 0.382959,1.476756 0.774607,0.765366 0.774634,0.765366 1.464153,0.343814 1.464154,0.343815 4.579647,4.595269 4.579647,4.595268 0.341019,1.464547 0.341019,1.464547 0.806046,0.743156 0.806019,0.743156 1.383425,0.383273 c 0.760902,0.210802 1.423067,0.385742 1.471635,0.388761 0.04847,0.003 0.155171,-0.06857 0.237095,-0.159082 z M 17.238279,34.869017 c 0.471196,-0.218022 0.815995,-0.534152 3.461644,-3.173646 l 2.938283,-2.931457 -0.478849,-0.483903 -0.478862,-0.483903 -1.222097,1.206253 c -1.11262,1.098168 -1.247707,1.206253 -1.507603,1.206253 -0.212561,0 -0.328168,-0.05421 -0.452386,-0.212128 -0.350063,-0.445022 -0.264844,-0.596045 1.13063,-2.00353 l 1.119131,-1.128818 -0.503843,-0.496164 -0.503855,-0.496163 -1.265034,1.202301 c -1.363997,1.296342 -1.51561,1.37883 -1.889853,1.027244 -0.126004,-0.118368 -0.186347,-0.26638 -0.186347,-0.457072 0,-0.255734 0.112509,-0.395376 1.207303,-1.498414 l 1.207277,-1.216387 -0.483746,-0.478705 -0.483758,-0.478705 -2.900479,2.896935 c -3.168263,3.164325 -3.293886,3.323289 -3.474378,4.39456 -0.126174,0.749286 0.01011,1.309219 0.465998,1.915713 0.389325,0.517914 1.175104,1.277872 1.635457,1.581768 0.739966,0.488393 1.754386,0.529545 2.665248,0.108117 z m 9.33913,-13.838181 -2.777612,-2.725892 -0.383747,0.374544 -0.38372,0.374544 2.758053,2.758973 2.758054,2.758972 0.403252,-0.407584 0.40324,-0.407584 z m 3.362669,-2.074808 2.013245,-2.073889 0.955165,-0.312219 0.955178,-0.312219 0.840858,-1.223331 c 0.46248,-0.672835 0.85321,-1.260413 0.868319,-1.30574 0.01511,-0.04532 -0.371079,-0.452806 -0.858212,-0.90552 L 33.828959,12 l -1.243179,0.891041 -1.243178,0.891041 -0.30941,0.88625 -0.309422,0.88625 -2.112745,2.112613 -2.112745,2.112614 0.621459,0.62512 c 0.341806,0.343814 0.663266,0.625133 0.714368,0.625133 0.0511,0 0.998851,-0.933257 2.10605,-2.073889 z"
       inkscape:label="icon" />
  </g>
</svg>
