<?xml version="1.0" encoding="UTF-8" standalone="no"?>
<!-- Created with Inkscape (http://www.inkscape.org/) -->

<svg
   id="svg4157"
   sodipodi:docname="sound.svg"
   viewBox="0 0 48.000002 48.000001"
   version="1.1"
   inkscape:version="1.1.2 (0a00cf5339, 2022-02-04)"
   width="48"
   height="48"
   xmlns:inkscape="http://www.inkscape.org/namespaces/inkscape"
   xmlns:sodipodi="http://sodipodi.sourceforge.net/DTD/sodipodi-0.dtd"
   xmlns="http://www.w3.org/2000/svg"
   xmlns:svg="http://www.w3.org/2000/svg"
   xmlns:rdf="http://www.w3.org/1999/02/22-rdf-syntax-ns#"
   xmlns:cc="http://creativecommons.org/ns#"
   xmlns:dc="http://purl.org/dc/elements/1.1/">
  <title
     id="title847">Sound Enabled</title>
  <defs
     id="defs16" />
  <sodipodi:namedview
     id="base"
     bordercolor="#666666"
     inkscape:pageshadow="2"
     inkscape:window-y="0"
     fit-margin-left="0"
     pagecolor="#ffffff"
     fit-margin-top="0"
     inkscape:window-maximized="1"
     inkscape:zoom="3.959798"
     inkscape:window-x="0"
     inkscape:window-height="712"
     showgrid="false"
     borderopacity="1.0"
     inkscape:current-layer="svg4157"
     inkscape:cx="15.404826"
     inkscape:cy="45.709402"
     fit-margin-right="0"
     fit-margin-bottom="0"
     inkscape:window-width="1366"
     inkscape:pageopacity="0.0"
     inkscape:document-units="px"
     inkscape:pagecheckerboard="0" />
  <metadata
     id="metadata13">
    <rdf:RDF>
      <cc:Work>
        <dc:format>image/svg+xml</dc:format>
        <dc:type
           rdf:resource="http://purl.org/dc/dcmitype/StillImage" />
        <cc:license
           rdf:resource="http://creativecommons.org/publicdomain/zero/1.0/" />
        <dc:publisher>
          <cc:Agent
             rdf:about="http://openclipart.org/">
            <dc:title>Openclipart</dc:title>
          </cc:Agent>
        </dc:publisher>
        <dc:date>2011-12-01T16:22:23</dc:date>
        <dc:description />
        <dc:source>https://openclipart.org/detail/165992</dc:source>
        <dc:creator>
          <cc:Agent>
            <dc:title>mightyman</dc:title>
          </cc:Agent>
        </dc:creator>
        <dc:subject>
          <rdf:Bag>
            <rdf:li>high volume</rdf:li>
            <rdf:li>high_volume</rdf:li>
            <rdf:li>highvolume</rdf:li>
            <rdf:li>loud</rdf:li>
            <rdf:li>sound</rdf:li>
            <rdf:li>sound on</rdf:li>
            <rdf:li>sound_on</rdf:li>
            <rdf:li>soundon</rdf:li>
            <rdf:li>speaker</rdf:li>
            <rdf:li>volume</rdf:li>
            <rdf:li>volume 3</rdf:li>
            <rdf:li>volume level</rdf:li>
            <rdf:li>volume level 3</rdf:li>
            <rdf:li>volume3</rdf:li>
            <rdf:li>volume_3</rdf:li>
            <rdf:li>volume_level</rdf:li>
            <rdf:li>volume_level_3</rdf:li>
            <rdf:li>volumelevel</rdf:li>
            <rdf:li>volumelevel3</rdf:li>
          </rdf:Bag>
        </dc:subject>
        <dc:title>Sound Enabled</dc:title>
      </cc:Work>
      <cc:License
         rdf:about="http://creativecommons.org/licenses/publicdomain/">
        <cc:permits
           rdf:resource="http://creativecommons.org/ns#Reproduction" />
        <cc:permits
           rdf:resource="http://creativecommons.org/ns#Distribution" />
        <cc:permits
           rdf:resource="http://creativecommons.org/ns#DerivativeWorks" />
      </cc:License>
    </rdf:RDF>
  </metadata>
  <g
     id="g3831"
     style="fill:#ffffff"
     transform="matrix(0.34437697,0,0,0.34437697,125.69832,-38.226643)">
    <g
       id="g3833"
       style="fill:#ffffff;stroke:#000000;stroke-width:1.7843;stroke-opacity:0.94118"
       inkscape:export-ydpi="26.790697"
       inkscape:export-filename="C:\Documents and Settings\HP_Omistaja\Työpöytä\g27493.png"
       transform="matrix(1.2564,0,0,1,-573.7,-229.05)"
       inkscape:export-xdpi="26.790697">
      <path
         id="path3835"
         style="fill:#ffffff;stroke:#000000;stroke-width:1.7843;stroke-opacity:0.94118"
         sodipodi:nodetypes="ccccc"
         inkscape:connector-curvature="0"
         d="m 226.78,345.05 c 0,0 -16.7,10.216 -36.635,44.194 v 41.719 c 18.959,30.302 36.048,43.487 36.048,43.487 6.4602,0 7.0335,-129.4 0.58615,-129.4 z" />
      <rect
         id="rect3837"
         style="fill:#ffffff;stroke:#000000;stroke-width:1.7843;stroke-linecap:round;stroke-linejoin:round;stroke-opacity:0.94118"
         ry="1.8022"
         height="41"
         width="20.5"
         y="389.25"
         x="167" />
    </g>
    <g
       id="g3839"
       style="fill:#ffffff;stroke:#000000;stroke-opacity:0.94118"
       transform="matrix(0.76438,0,0,0.76438,-651.44,192.25)">
      <path
         id="path3841"
         d="m 519.86,-101.15 c 13.407,25.763 21,55.031 21,86.031 0,30.986 -7.5932,60.258 -21,86.031 22.361,-22.123 36.219,-52.546 36.219,-86.031 0,-33.491 -13.858,-63.899 -36.219,-86.031 z m -14.594,33.719 c 8.4396,16.204 13.219,34.608 13.219,54.125 0,19.505 -4.7791,37.95 -13.219,54.156 14.075,-13.916 22.781,-33.079 22.781,-54.156 0,-21.089 -8.7062,-40.212 -22.781,-54.125 z m -11.844,20.938 c 5.3163,10.251 8.3438,21.88 8.3438,34.188 0,12.315 -3.021,23.957 -8.3438,34.188 8.885,-8.786 14.375,-20.87 14.375,-34.188 0,-13.295 -5.4966,-25.389 -14.375,-34.188 z"
         sodipodi:nodetypes="cscsccscsccscsc"
         style="fill:#ffffff;stroke:#000000;stroke-width:2;stroke-opacity:0.94118"
         inkscape:connector-curvature="0" />
      <symbol
         id="symbol3843"
         style="fill:#ffffff;stroke:#000000;stroke-opacity:0.94118"
         transform="matrix(0.18633,0,0,0.18633,-1921.1,-1208.7)">
        <path
           id="path3845"
           d="m 13816,8478.1 c 299.14,0 543.12,243.98 543.12,543.12 0,299.13 -243.98,543.12 -543.12,543.12 -299.13,0 -543.12,-243.98 -543.12,-543.12 0,-299.14 243.98,-543.12 543.12,-543.12 z"
           style="fill:#ffffff;stroke:#000000;stroke-opacity:0.94118"
           inkscape:connector-curvature="0"
           class="fil0" />
        <path
           id="path3847"
           d="m 13816,8450.7 c 314.22,0 570.5,256.28 570.5,570.5 0,314.22 -256.28,570.5 -570.5,570.5 -314.22,0 -570.5,-256.28 -570.5,-570.5 0,-314.22 256.28,-570.5 570.5,-570.5 z m -13.508,577.37 c 18.075,0 34.78,6.0276 48.217,16.173 -12.237,-10.098 -27.197,-17.185 -43.926,-19.933 -50.543,-8.2953 -98.531,26.154 -106.83,76.697 -0.256,1.5866 -0.472,3.1732 -0.649,4.7598 -48.17,-18.638 -78.634,-69.315 -69.957,-122.18 l 30.126,-183.5 207.62,22.409 c 4.185,0.4489 8.169,-4.2992 8.843,-10.559 0.681,-6.2598 -2.205,-11.752 -6.386,-12.201 l -206.36,-22.272 2.26,-13.791 207.71,22.417 c 4.185,0.4489 8.169,-4.2992 8.842,-10.559 0.681,-6.2598 -2.205,-11.752 -6.386,-12.201 l -206.45,-22.284 3.244,-19.752 206.82,22.323 c 4.185,0.4489 8.17,-4.2992 8.843,-10.559 0.681,-6.2598 -2.201,-11.752 -6.386,-12.201 l -205.56,-22.185 3.087,-18.819 208.52,22.504 c 4.181,0.4489 8.169,-4.2992 8.842,-10.559 0.677,-6.2598 -2.204,-11.752 -6.386,-12.201 l -207.26,-22.366 3.433,-20.929 c 25.209,-153.57 343.13,-111.92 316.23,51.906 l -57.003,347.29 c -6.04,36.776 -29.678,66.48 -60.874,81.921 0.173,-11.673 -1.882,-23.02 -5.804,-33.563 2.477,7.7126 3.827,15.933 3.827,24.453 0,37.327 -25.709,68.831 -60.327,77.72 v 283.97 c 0,17.417 -11.574,31.665 -25.724,31.665 h -35.618 c -14.146,0 -25.721,-14.248 -25.721,-31.665 v -317.89 c -8.259,-12.61 -13.082,-27.661 -13.082,-43.807 0,-44.197 36.039,-80.236 80.236,-80.236 z"
           style="fill:#ffffff;stroke:#000000;stroke-opacity:0.94118"
           inkscape:connector-curvature="0"
           class="fil1" />
      </symbol>
    </g>
  </g>
</svg>
